# xmcd CD database file
#
# Track frame offsets:
#	150
#	12825
#	32437
#	47962
#	62325
#	82425
#	108562
#	119737
#	141900
#	153675
#	174487
#	191587
#	212250
#	226387
#	238500
#	247762
#	262425
#
# Disc length: 3752 seconds
#
# Revision: 0
# Processed by: cddbd v1.4PL0 Copyright (c) Steve Scherf et al.
# Submitted via: Feurio! 1.65 - http://www.feurio.com
#
DISCID=f10ea611
DTITLE=Various Artist - Keep It Rollin': The Blues Piano Collection
DYEAR=2001
DGENRE=Blues
TTITLE0=Willie Tee - In The Beginning
TTITLE1=Charles Brown - Give Me A Woman
TTITLE2=James Booker - All Around The World
TTITLE3=Tuts Washington - Arkansas Blues
TTITLE4=Booker t. Laury - Booker's Boogie
TTITLE5=Davell Crawford - A Closer Walk With Thee/Amazing Grace
TTITLE6=James Booker - Hound Dog
TTITLE7=Charles Brown - Black Night
TTITLE8=Eddie Bo - Hard Times
TTITLE9=Tuts Washington - Yancey Special
TTITLE10=Davell Crawford - Keep It Rollin'
TTITLE11=Booker T. Laury - Early In The Morning
TTITLE12=Charles Brown - Nobody Knows The Trouble I've Seen
TTITLE13=Eddie Bo - I'm Through Dealing
TTITLE14=Willie Tee - On The Q-Tee
TTITLE15=Art Neville - My Children
TTITLE16=James Booker - Amen
EXTD=Rounder Heritage Series
EXTT0=
EXTT1=
EXTT2=
EXTT3=
EXTT4=
EXTT5=
EXTT6=
EXTT7=
EXTT8=
EXTT9=
EXTT10=
EXTT11=
EXTT12=
EXTT13=
EXTT14=
EXTT15=
EXTT16=
PLAYORDER=
